<svg width="22" height="19" viewBox="0 0 22 19" fill="none" xmlns="http://www.w3.org/2000/svg">
<mask id="path-1-inside-1_1_86" fill="white">
<path fill-rule="evenodd" clip-rule="evenodd" d="M0 3.00781C0 1.34664 1.34664 0 3.00781 0H18.9922C20.6534 0 22 1.34664 22 3.00781V4.25643H15.2376C12.6224 4.25643 10.5024 6.37649 10.5024 8.99171C10.5024 11.6069 12.6224 13.727 15.2376 13.727H22V15.082C22 16.7432 20.6534 18.0898 18.9922 18.0898H3.00781C1.34664 18.0898 0 16.7432 0 15.082V3.00781ZM15.2376 5.85619H22V12.1272H15.2376C13.5059 12.1272 12.1021 10.7234 12.1021 8.99171C12.1021 7.26001 13.5059 5.85619 15.2376 5.85619ZM15.8755 8.27194C15.4604 8.27194 15.124 8.6084 15.124 9.02344C15.124 9.43848 15.4604 9.77494 15.8755 9.77494H17.5578C17.9728 9.77494 18.3093 9.43848 18.3093 9.02344C18.3093 8.6084 17.9728 8.27194 17.5578 8.27194H15.8755Z"/>
</mask>
<path fill-rule="evenodd" clip-rule="evenodd" d="M0 3.00781C0 1.34664 1.34664 0 3.00781 0H18.9922C20.6534 0 22 1.34664 22 3.00781V4.25643H15.2376C12.6224 4.25643 10.5024 6.37649 10.5024 8.99171C10.5024 11.6069 12.6224 13.727 15.2376 13.727H22V15.082C22 16.7432 20.6534 18.0898 18.9922 18.0898H3.00781C1.34664 18.0898 0 16.7432 0 15.082V3.00781ZM15.2376 5.85619H22V12.1272H15.2376C13.5059 12.1272 12.1021 10.7234 12.1021 8.99171C12.1021 7.26001 13.5059 5.85619 15.2376 5.85619ZM15.8755 8.27194C15.4604 8.27194 15.124 8.6084 15.124 9.02344C15.124 9.43848 15.4604 9.77494 15.8755 9.77494H17.5578C17.9728 9.77494 18.3093 9.43848 18.3093 9.02344C18.3093 8.6084 17.9728 8.27194 17.5578 8.27194H15.8755Z" fill="white"/>
<path d="M22 4.25643V5.33065H23.0742V4.25643H22ZM22 13.727H23.0742V12.6528H22V13.727ZM22 5.85619H23.0742V4.78197H22V5.85619ZM22 12.1272V13.2015H23.0742V12.1272H22ZM3.00781 -1.07422C0.753369 -1.07422 -1.07422 0.753369 -1.07422 3.00781H1.07422C1.07422 1.93992 1.93992 1.07422 3.00781 1.07422V-1.07422ZM18.9922 -1.07422H3.00781V1.07422H18.9922V-1.07422ZM23.0742 3.00781C23.0742 0.753369 21.2466 -1.07422 18.9922 -1.07422V1.07422C20.0601 1.07422 20.9258 1.93992 20.9258 3.00781H23.0742ZM23.0742 4.25643V3.00781H20.9258V4.25643H23.0742ZM15.2376 5.33065H22V3.18221H15.2376V5.33065ZM11.5766 8.99171C11.5766 6.96976 13.2157 5.33065 15.2376 5.33065V3.18221C12.0291 3.18221 9.42814 5.78322 9.42814 8.99171H11.5766ZM15.2376 12.6528C13.2157 12.6528 11.5766 11.0137 11.5766 8.99171H9.42814C9.42814 12.2002 12.0291 14.8012 15.2376 14.8012V12.6528ZM22 12.6528H15.2376V14.8012H22V12.6528ZM23.0742 15.082V13.727H20.9258V15.082H23.0742ZM18.9922 19.1641C21.2466 19.1641 23.0742 17.3365 23.0742 15.082H20.9258C20.9258 16.1499 20.0601 17.0156 18.9922 17.0156V19.1641ZM3.00781 19.1641H18.9922V17.0156H3.00781V19.1641ZM-1.07422 15.082C-1.07422 17.3365 0.753369 19.1641 3.00781 19.1641V17.0156C1.93992 17.0156 1.07422 16.1499 1.07422 15.082H-1.07422ZM-1.07422 3.00781V15.082H1.07422V3.00781H-1.07422ZM22 4.78197H15.2376V6.93041H22V4.78197ZM23.0742 12.1272V5.85619H20.9258V12.1272H23.0742ZM15.2376 13.2015H22V11.053H15.2376V13.2015ZM11.0279 8.99171C11.0279 11.3167 12.9127 13.2015 15.2376 13.2015V11.053C14.0992 11.053 13.1763 10.1301 13.1763 8.99171H11.0279ZM15.2376 4.78197C12.9127 4.78197 11.0279 6.66674 11.0279 8.99171H13.1763C13.1763 7.85329 14.0992 6.93041 15.2376 6.93041V4.78197ZM16.1982 9.02344C16.1982 9.20167 16.0537 9.34616 15.8755 9.34616V7.19772C14.8671 7.19772 14.0497 8.01512 14.0497 9.02344H16.1982ZM15.8755 8.70072C16.0537 8.70072 16.1982 8.84521 16.1982 9.02344H14.0497C14.0497 10.0318 14.8671 10.8492 15.8755 10.8492V8.70072ZM17.5578 8.70072H15.8755V10.8492H17.5578V8.70072ZM17.2351 9.02344C17.2351 8.84521 17.3796 8.70072 17.5578 8.70072V10.8492C18.5661 10.8492 19.3835 10.0318 19.3835 9.02344H17.2351ZM17.5578 9.34616C17.3796 9.34616 17.2351 9.20167 17.2351 9.02344H19.3835C19.3835 8.01512 18.5661 7.19772 17.5578 7.19772V9.34616ZM15.8755 9.34616H17.5578V7.19772H15.8755V9.34616Z" fill="white" mask="url(#path-1-inside-1_1_86)"/>
</svg>
